<svg width="20" height="20" viewBox="0 0 20 20" fill="none" xmlns="http://www.w3.org/2000/svg">
<path fill-rule="evenodd" clip-rule="evenodd" d="M11.6672 15C12.1274 15 12.5005 14.6269 12.5005 14.1667V12.5C12.5005 12.0398 12.1274 11.6667 11.6672 11.6667C11.2069 11.6667 10.8338 12.0398 10.8338 12.5V14.1667C10.8338 14.6269 11.2069 15 11.6672 15ZM8.33433 15C8.79457 15 9.16767 14.6269 9.16767 14.1667V12.5C9.16767 12.0398 8.79457 11.6667 8.33433 11.6667C7.8741 11.6667 7.501 12.0398 7.501 12.5V14.1667C7.501 14.6269 7.8741 15 8.33433 15ZM15.8339 5.00008H14.6839L13.2423 2.12508C13.1222 1.83672 12.8509 1.63972 12.5396 1.61476C12.2282 1.58981 11.929 1.74108 11.7645 2.00663C11.6 2.27219 11.5979 2.60743 11.7589 2.87508L12.8173 5.00008H7.18394L8.24227 2.87508C8.41006 2.47214 8.23851 2.008 7.84899 1.81105C7.45947 1.61411 6.98398 1.75109 6.75894 2.12508L5.31727 5.00008H4.16727C2.95127 5.01858 1.92499 5.90943 1.73575 7.11076C1.5465 8.31208 2.24919 9.47531 3.4006 9.86675L4.01727 16.0834C4.14613 17.3657 5.22858 18.3399 6.51727 18.3334H13.5006C14.7893 18.3399 15.8717 17.3657 16.0006 16.0834L16.6173 9.86675C17.7714 9.47409 18.474 8.30628 18.2803 7.1027C18.0865 5.89913 17.053 5.01077 15.8339 5.00008ZM14.325 15.9165C14.2821 16.3439 13.9213 16.6686 13.4917 16.6665H6.50837C6.07881 16.6686 5.71799 16.3439 5.67504 15.9165L5.08337 9.99979H14.9167L14.325 15.9165ZM15.8341 8.33336H4.16742C3.70718 8.33336 3.33408 7.96027 3.33408 7.50003C3.33408 7.03979 3.70718 6.6667 4.16742 6.6667H15.8341C16.2943 6.6667 16.6674 7.03979 16.6674 7.50003C16.6674 7.96027 16.2943 8.33336 15.8341 8.33336Z" fill="white"/>
</svg>
