<svg width="16" height="21" viewBox="0 0 16 21" fill="none" xmlns="http://www.w3.org/2000/svg">
<path fill-rule="evenodd" clip-rule="evenodd" d="M10.9634 3.91832e-05C10.9634 3.91832e-05 9.70613 2.16304 10.7954 4.37607C11.8855 6.58914 12.8411 8.333 12.6226 10.1937C12.6226 10.1937 13.1759 7.1758 15.9758 6.38727C15.9758 6.38727 14.9364 8.34872 15.5061 11.1158C16.0758 13.8821 14.7849 19.0465 9.48662 20.3881C9.48662 20.3881 14.1814 17.8898 10.8111 13.8319C10.8111 13.8319 10.7275 15.8276 8.99197 16.4223C8.99197 16.4223 11.7247 11.7695 7.70096 7.4436C7.70096 7.4436 8.62305 10.4451 5.53796 13.0107C2.45286 15.5763 3.97894 19.7006 5.75603 20.2702C5.75603 20.2702 -3.93537 15.9444 1.83243 7.0249C1.83243 7.0249 2.03396 9.05358 3.50933 9.84195C3.50933 9.84195 3.29125 1.14007 10.9625 0L10.9634 3.91832e-05Z" fill="white"/>
</svg>
