<svg width="14" height="8" viewBox="0 0 14 8" fill="none" xmlns="http://www.w3.org/2000/svg">
<path fill-rule="evenodd" clip-rule="evenodd" d="M7.94409 7.62117L13.6051 2.19101C13.8578 1.95054 14 1.6232 14 1.28171C14 0.940232 13.8578 0.61289 13.6051 0.372418C13.0843 -0.124139 12.2433 -0.124139 11.7225 0.372418L6.99614 4.90609L2.26975 0.372417C1.749 -0.12414 0.907965 -0.12414 0.387211 0.372417C0.137291 0.614109 -0.00203041 0.9413 2.18785e-05 1.28171C-0.00203044 1.62213 0.137291 1.94932 0.387211 2.19101L6.04819 7.62117C6.29889 7.86362 6.64014 8 6.99614 8C7.35214 8 7.69339 7.86362 7.94409 7.62117Z" fill="#FF640D"/>
</svg>
