<svg width="20" height="20" viewBox="0 0 20 20" fill="none" xmlns="http://www.w3.org/2000/svg">
<path d="M0 5C0 3.61929 1.11929 2.5 2.5 2.5H17.5C18.8807 2.5 20 3.61929 20 5V15C20 16.3807 18.8807 17.5 17.5 17.5H2.5C1.11929 17.5 0 16.3807 0 15V5ZM2.5 3.75C1.80964 3.75 1.25 4.30964 1.25 5V5.27113L10 10.5211L18.75 5.27113V5C18.75 4.30964 18.1904 3.75 17.5 3.75H2.5ZM18.75 6.72887L12.8027 10.2972L18.75 13.8919V6.72887ZM18.7069 15.3265L11.59 11.0248L10 11.9789L8.40996 11.0248L1.29307 15.3265C1.43664 15.8585 1.9226 16.25 2.5 16.25H17.5C18.0774 16.25 18.5634 15.8585 18.7069 15.3265ZM1.25 13.8919L7.19728 10.2972L1.25 6.72887V13.8919Z" fill="white"/>
</svg>
