<svg width="40" height="40" viewBox="0 0 40 40" fill="none" xmlns="http://www.w3.org/2000/svg">
<path d="M0 2.86535C0 1.28328 1.31503 0 2.93729 0H37.0627C38.6849 0 40 1.28329 40 2.86535V37.1347C40 38.7172 38.6849 40 37.0627 40L2.93729 40C1.31503 40 0 38.7172 0 37.1346V2.86535ZM12.3584 33.4841V15.4219H6.3549V33.4841H12.3584ZM9.35664 12.9558C11.4502 12.9558 12.7533 11.5688 12.7533 9.83551C12.7143 8.06317 11.4502 6.71468 9.39636 6.71468C7.34273 6.71468 6 8.06317 6 9.83551C6 11.5688 7.30279 12.9558 9.31751 12.9558H9.35664ZM21.6285 33.4841V23.3974C21.6285 22.8576 21.6675 22.3183 21.826 21.9324C22.26 20.8538 23.2479 19.7368 24.9064 19.7368C27.0788 19.7368 27.9478 21.3931 27.9478 23.8213V33.4841H33.9508V23.1275C33.9508 17.5796 30.989 14.9981 27.0391 14.9981C23.8544 14.9981 22.4265 16.7484 21.6287 17.9792V18.0414H21.5886C21.6018 18.0208 21.6151 18.0001 21.6287 17.9792V15.4219H15.6252C15.7039 17.1167 15.6252 33.4841 15.6252 33.4841H21.6285Z" fill="#31145B"/>
</svg>
