<svg width="20" height="20" viewBox="0 0 20 20" fill="none" xmlns="http://www.w3.org/2000/svg">
<path d="M4.56734 1.66061C4.25429 1.25812 3.65931 1.22108 3.29875 1.58163L2.00635 2.87404C1.40201 3.47838 1.17984 4.33457 1.44388 5.08559C2.50422 8.10155 4.24019 10.9334 6.6534 13.3466C9.06661 15.7598 11.8985 17.4958 14.9144 18.5561C15.6654 18.8202 16.5216 18.598 17.126 17.9937L18.4184 16.7012C18.7789 16.3407 18.7419 15.7457 18.3394 15.4327L15.4566 13.1905C15.251 13.0306 14.9833 12.9741 14.7306 13.0373L11.9943 13.7214C11.251 13.9072 10.4648 13.6894 9.92306 13.1477L6.85234 10.0769C6.31061 9.53522 6.09284 8.74898 6.27865 8.00574L6.96273 5.26941C7.02591 5.0167 6.9694 4.74897 6.80947 4.54335L4.56734 1.66061ZM2.35597 0.638845C3.28361 -0.288798 4.81437 -0.193496 5.61979 0.842043L7.86192 3.72478C8.27338 4.2538 8.41877 4.94261 8.25623 5.59278L7.57215 8.32911C7.49992 8.618 7.58457 8.92359 7.79513 9.13415L10.8659 12.2049C11.0764 12.4154 11.382 12.5001 11.6709 12.4279L14.4072 11.7438C15.0574 11.5812 15.7462 11.7266 16.2752 12.1381L19.158 14.3802C20.1935 15.1856 20.2888 16.7164 19.3612 17.644L18.0688 18.9364C17.1441 19.8611 15.7611 20.2671 14.4722 19.814C11.2719 18.6888 8.26798 16.8468 5.71061 14.2894C3.15324 11.732 1.31119 8.72807 0.186048 5.52781C-0.267103 4.2389 0.138913 2.8559 1.06356 1.93125L2.35597 0.638845Z" fill="white"/>
</svg>
