<svg width="30" height="30" viewBox="0 0 30 30" fill="none" xmlns="http://www.w3.org/2000/svg">
<circle cx="15" cy="15" r="15" transform="matrix(-1 0 0 1 30 0)" fill="#31145B" fill-opacity="0.22"/>
<path fill-rule="evenodd" clip-rule="evenodd" d="M10.1762 13.8873L16.2851 7.21545C16.5556 6.91756 16.9239 6.75 17.3081 6.75C17.6922 6.75 18.0605 6.91756 18.331 7.21545C18.8897 7.8292 18.8897 8.82042 18.331 9.43417L13.2306 15.0045L18.331 20.5749C18.8897 21.1887 18.8897 22.1799 18.331 22.7936C18.0591 23.0882 17.691 23.2524 17.3081 23.25C16.9251 23.2524 16.557 23.0882 16.2851 22.7936L10.1762 16.1218C9.90342 15.8263 9.75 15.4241 9.75 15.0045C9.75 14.585 9.90342 14.1828 10.1762 13.8873Z" fill="#31145B"/>
</svg>
