<svg width="30" height="30" viewBox="0 0 30 30" fill="none" xmlns="http://www.w3.org/2000/svg">
<circle cx="15" cy="15" r="15" fill="#31145B" fill-opacity="0.22"/>
<path fill-rule="evenodd" clip-rule="evenodd" d="M19.8238 13.8873L13.7149 7.21545C13.4444 6.91756 13.0761 6.75 12.6919 6.75C12.3078 6.75 11.9395 6.91756 11.669 7.21545C11.1103 7.8292 11.1103 8.82042 11.669 9.43417L16.7694 15.0045L11.669 20.5749C11.1103 21.1887 11.1103 22.1799 11.669 22.7936C11.9409 23.0882 12.309 23.2524 12.6919 23.25C13.0749 23.2524 13.443 23.0882 13.7149 22.7936L19.8238 16.1218C20.0966 15.8263 20.25 15.4241 20.25 15.0045C20.25 14.585 20.0966 14.1828 19.8238 13.8873Z" fill="#31145B"/>
</svg>
