<svg width="20" height="20" viewBox="0 0 20 20" fill="none" xmlns="http://www.w3.org/2000/svg">
<g clip-path="url(#clip0_58_2683)">
<path d="M10 0C4.47714 0 0 4.47714 0 10C0 15.5229 4.47714 20 10 20C15.5229 20 20 15.5229 20 10C19.9936 4.4798 15.5202 0.00641129 10 0ZM10 19.3548C4.83347 19.3548 0.645161 15.1665 0.645161 10C0.645161 4.83347 4.83347 0.645161 10 0.645161C15.1665 0.645161 19.3548 4.83347 19.3548 10C19.3492 15.1642 15.1642 19.3492 10 19.3548Z" fill="#FF640D"/>
<path d="M14.5622 5.43808C14.4362 5.31215 14.232 5.31215 14.1061 5.43808L10.0003 9.54389L5.89445 5.43808C5.7707 5.30994 5.56647 5.30639 5.43833 5.43014C5.31018 5.55389 5.30663 5.75812 5.43038 5.88627C5.43296 5.88897 5.43562 5.89159 5.43833 5.89421L9.54413 10L5.43833 14.1058C5.31018 14.2296 5.30663 14.4338 5.43042 14.562C5.55421 14.6901 5.75841 14.6936 5.88655 14.5699C5.88925 14.5673 5.89187 14.5646 5.89445 14.562L10.0003 10.4561L14.1061 14.562C14.2342 14.6857 14.4384 14.6822 14.5622 14.5541C14.683 14.4291 14.683 14.2308 14.5622 14.1058L10.4564 10L14.5622 5.89421C14.6881 5.76824 14.6881 5.56405 14.5622 5.43808Z" fill="#FF640D"/>
</g>
<defs>
<clipPath id="clip0_58_2683">
<rect width="20" height="20" fill="white"/>
</clipPath>
</defs>
</svg>
