<svg width="40" height="40" viewBox="0 0 40 40" fill="none" xmlns="http://www.w3.org/2000/svg">
<path d="M12.565 37.5C27.6591 37.5 35.9184 24.9926 35.9184 14.1646C35.9184 13.8127 35.9184 13.4609 35.9024 13.109C37.503 11.9574 38.8956 10.502 40 8.85458C38.5274 9.51033 36.9428 9.94218 35.2781 10.1501C36.9748 9.14247 38.2713 7.52707 38.8956 5.60777C37.3109 6.55143 35.5502 7.22318 33.6775 7.59104C32.1729 5.99163 30.044 5 27.6911 5C23.1613 5 19.4798 8.67864 19.4798 13.205C19.4798 13.8447 19.5598 14.4685 19.6879 15.0763C12.8691 14.7404 6.81873 11.4616 2.76911 6.50344C2.06483 7.719 1.66467 9.12648 1.66467 10.6299C1.66467 13.4769 3.12125 15.9879 5.31413 17.4594C3.96959 17.4114 2.70508 17.0436 1.60064 16.4358C1.60064 16.4678 1.60064 16.4998 1.60064 16.5477C1.60064 20.5143 4.43377 23.841 8.17927 24.5928C7.491 24.7847 6.77071 24.8807 6.01841 24.8807C5.4902 24.8807 4.97799 24.8327 4.48179 24.7367C5.52221 27.9995 8.56343 30.3666 12.1489 30.4306C9.33173 32.6378 5.79432 33.9493 1.95278 33.9493C1.29652 33.9493 0.640256 33.9173 0 33.8374C3.61745 36.1405 7.93918 37.5 12.565 37.5Z" fill="#31145B"/>
</svg>
